<?xml version="1.0" encoding="utf-8"?>
<svg version="1.1" id="Layer_1" xmlns="http://www.w3.org/2000/svg" xmlns:xlink="http://www.w3.org/1999/xlink" x="0px" y="0px"
   viewBox="0 0 128 128" style="enable-background:new 0 0 128 128;" xml:space="preserve">
<linearGradient id="SVGID_1_" gradientUnits="userSpaceOnUse" x1="63.9997" y1="7.0333" x2="63.9997" y2="120.7891">
  <stop  offset="0" style="stop-color:#4387FD"/>
  <stop  offset="1" style="stop-color:#4683EA"/>
</linearGradient>
<path style="fill:url(#SVGID_1_);" d="M27.7906,115.2163L1.54,69.7491c-2.0541-3.5578-2.0541-7.9412,0-11.499l26.2506-45.4672
  c2.0541-3.5578,5.8503-5.7495,9.9585-5.7495h52.5012c4.1082,0,7.9044,2.1917,9.9585,5.7495L126.4594,58.25
  c2.0541,3.5578,2.0541,7.9412,0,11.499l-26.2506,45.4672c-2.0541,3.5578-5.8503,5.7495-9.9585,5.7495H37.7491
  C33.6409,120.9658,29.8448,118.7741,27.7906,115.2163z"/>
<path style="opacity:0.07;" d="M93.1058,55.1116L76.1486,62.448L49.6252,35.9246l-6.6255,12.8253v34.3738l-2.661,3.7693
  l34.0737,34.0737h15.8382c4.1082,0,7.9044-2.1917,9.9585-5.7496l19.4001-33.6021L93.1058,55.1116z"/>
<g>
  <path style="fill:#FFFFFF;" d="M85.4369,75.4863c-4.3059,0-7.8918,2.9733-8.8882,6.9707h-31.774V62.39h31.774
    c0.9966,3.997,4.5825,6.9705,8.8882,6.9705c5.0748,0,9.1886-4.1139,9.1886-9.1886s-4.1139-9.1886-9.1886-9.1886
    c-4.3059,0-7.8918,2.9733-8.8882,6.9707h-31.774v-7.2711c3.997-0.9966,6.9705-4.5825,6.9705-8.8882
    c0-5.0748-4.1139-9.1886-9.1886-9.1886s-9.1886,4.1139-9.1886,9.1886c0,4.3057,2.9735,7.8916,6.9705,8.8882V86.893h0.9207h3.5155
    h31.774c0.9966,3.997,4.5825,6.9705,8.8882,6.9705c5.0748,0,9.1886-4.1139,9.1886-9.1886S90.5117,75.4863,85.4369,75.4863z
    M85.4369,87.7378c-1.6917,0-3.0629-1.3714-3.0629-3.0629c0-1.6917,1.3712-3.0629,3.0629-3.0629
    c1.6916,0,3.0629,1.3712,3.0629,3.0629C88.4998,86.3664,87.1286,87.7378,85.4369,87.7378z"/>
</g>
<rect x="40" y="47.9997" style="fill:#FFFFFF;" width="5" height="39"/>
<rect x="40" y="57.9997" style="fill:#FFFFFF;" width="39" height="5"/>
<rect x="40" y="81.9997" style="fill:#FFFFFF;" width="39" height="5"/>
</svg>
